<svg xmlns="http://www.w3.org/2000/svg" viewBox="0 0 24 24">
<g id="facebook"><path d="m10.15123,1.54232c0.83464,-0.85959 2.02181,-1.14993 3.14172,-1.18612c1.18442,-0.01152 2.36837,-0.00455 3.5528,-0.00405c0.00468,1.35144 0.00509,2.70337 -0.00047,4.05475c-0.76544,-0.00146 -1.5314,0.00203 -2.29684,-0.00146c-0.48537,-0.0327 -0.98379,0.36524 -1.072,0.88568c-0.01164,0.90426 -0.00421,1.80904 -0.00374,2.71337c1.12265,0.005 2.24531,-0.00152 3.36791,0.00303c-0.08218,1.30817 -0.23222,2.61038 -0.40823,3.90754c-0.99163,0.01006 -1.98384,-0.00102 -2.97542,0.00556c-0.00883,3.85831 0.00463,7.71662 -0.00696,11.57493c-1.4729,0.00652 -2.94669,-0.00303 -4.41954,0.0045c-0.0279,-3.85882 0.00229,-7.7196 -0.01533,-11.57892c-0.71858,-0.00809 -1.43758,0.00556 -2.15611,-0.00652c0.00275,-1.29715 0.00094,-2.59425 0.00135,-3.89095c0.71806,-0.0095 1.43664,0.00202 2.15476,-0.0055c0.02182,-1.26102 -0.02187,-2.52351 0.02275,-3.78347c0.07201,-0.99782 0.4236,-2.00313 1.11335,-2.69236z"/></g>
</svg>