<svg xmlns="http://www.w3.org/2000/svg" viewBox="0 0 24 24">
<g id="pin"><path d="M 12.972656 16.113281 L 12.972656 20.742188 L 11.980469 23.359375 L 10.984375 20.742188 L 10.984375 16.113281 Z M 12.972656 16.113281 "/><path d="M 17.945312 13.664062 C 17.945312 14.894531 15.792969 15.914062 12.972656 16.113281 L 10.984375 16.113281 C 8.164062 15.914062 6.011719 14.894531 6.011719 13.664062 C 6.011719 12.832031 6.992188 12.097656 8.496094 11.644531 L 8.496094 4.683594 C 6.992188 4.234375 6.011719 3.5 6.011719 2.667969 C 6.011719 1.296875 8.683594 0.679688 11.980469 0.679688 C 15.273438 0.679688 17.945312 1.296875 17.945312 2.667969 C 17.945312 3.5 16.964844 4.234375 15.460938 4.683594 L 15.460938 11.644531 C 16.964844 12.097656 17.945312 12.832031 17.945312 13.664062 Z M 17.945312 13.664062"/></g>
</svg>